<?xml version="1.0" encoding="UTF-8"?>
<svg id="Layer_1" xmlns="http://www.w3.org/2000/svg" viewBox="0 0 800 305">
  <defs>
    <style>
      .cls-1 {
        fill: none;
        stroke: #010101;
        stroke-miterlimit: 10;
      }

      .cls-2 {
        fill: rgba(193, 192, 192, .2);
      }

      .cls-3 {
        fill: #fff;
      }

      .cls-4 {
        font-family: ArialMT, Arial;
      }

      .cls-4, .cls-5, .cls-6 {
        fill: #010101;
        font-size: 13px;
        isolation: isolate;
      }

      .cls-5 {
        font-family: Arial-BoldItalicMT, Arial;
        font-style: italic;
      }

      .cls-5, .cls-6 {
        font-weight: 700;
      }

      .cls-7 {
        letter-spacing: -.02em;
      }

      .cls-8 {
        letter-spacing: -.06em;
      }

      .cls-6 {
        font-family: Arial-BoldMT, Arial;
      }
    </style>
  </defs>
  <rect class="cls-2" x="144.5" y="33" width="224" height="64"/>
  <rect class="cls-3" x="137.5" y="26" width="224" height="64"/>
  <path class="cls-1" d="M137.5,26h224v64h-224V26Z"/>
  <path class="cls-1" d="M137.5,51h224"/>
  <text class="cls-5" transform="translate(211.83 39.5)"><tspan class="cls-7" x="0" y="0">T</tspan><tspan x="7.71" y="0">ransformer</tspan></text>
  <text class="cls-4" transform="translate(142.5 62.5)"><tspan x="0" y="0">+call(x: Embeddings): Embeddings</tspan></text>
  <rect class="cls-2" x="144.5" y="161" width="160" height="48"/>
  <rect class="cls-3" x="137.5" y="154" width="160" height="48"/>
  <path class="cls-1" d="M137.5,154h160v48h-160v-48Z"/>
  <text class="cls-6" transform="translate(162.72 167.5)"><tspan class="cls-8" x="0" y="0">T</tspan><tspan x="7.22" y="0">ransformerStack</tspan></text>
  <rect class="cls-2" x="352.5" y="161" width="160" height="48"/>
  <rect class="cls-3" x="345.5" y="154" width="160" height="48"/>
  <path class="cls-1" d="M345.5,154h160v48h-160v-48Z"/>
  <text class="cls-6" transform="translate(370.72 167.5)"><tspan class="cls-8" x="0" y="0">T</tspan><tspan x="7.22" y="0">ransformerLayer</tspan></text>
  <path class="cls-1" d="M217.5,154v-64"/>
  <path class="cls-3" d="M225.92,110.33l-8.42-20.33-8.42,20.33"/>
  <path class="cls-1" d="M225.92,110.33l-8.42-20.33-8.42,20.33h16.84"/>
  <path class="cls-1" d="M417.5,154v-24h-200v-40"/>
  <path class="cls-3" d="M225.92,110.33l-8.42-20.33-8.42,20.33"/>
  <path class="cls-1" d="M225.92,110.33l-8.42-20.33-8.42,20.33h16.84"/>
  <path class="cls-1" d="M137.5,178h-64V58h64"/>
  <path class="cls-1" d="M127.34,62.21l10.16-4.21-10.16-4.21"/>
  <rect class="cls-3" x="106.5" y="74" width="19.51" height="13"/>
  <text class="cls-4" transform="translate(106.5 80.5)"><tspan x="0" y="0">1..*</tspan></text>
  <rect class="cls-2" x="576.5" y="161" width="160" height="48"/>
  <rect class="cls-3" x="569.5" y="154" width="160" height="48"/>
  <path class="cls-1" d="M569.5,154h160v48h-160v-48Z"/>
  <text class="cls-5" transform="translate(621.48 167.5)"><tspan x="0" y="0">Attention</tspan></text>
  <rect class="cls-2" x="576.5" y="241" width="160" height="48"/>
  <rect class="cls-3" x="569.5" y="234" width="160" height="48"/>
  <path class="cls-1" d="M569.5,234h160v48h-160v-48Z"/>
  <text class="cls-6" transform="translate(636.28 247.5)"><tspan x="0" y="0">ML</tspan><tspan class="cls-7" x="18.77" y="0">P</tspan></text>
  <path class="cls-1" d="M505.5,178h64"/>
  <path class="cls-1" d="M559.34,182.21l10.16-4.21-10.16-4.21"/>
  <path class="cls-1" d="M505.5,178h32v80h32"/>
  <path class="cls-1" d="M559.34,262.21l10.16-4.21-10.16-4.21"/>
</svg>